<mxfile host="app.diagrams.net" modified="2022-11-02T11:45:30.931Z" agent="5.0 (Windows)" etag="l6NfSLcuS6ps9qljP7wr" version="20.2.2" type="github">
  <diagram id="XS049etqs_i6tBQPeMiG" name="Page-1">
    <mxGraphModel dx="1422" dy="701" grid="1" gridSize="10" guides="1" tooltips="1" connect="1" arrows="1" fold="1" page="1" pageScale="1" pageWidth="850" pageHeight="1100" math="0" shadow="0">
      <root>
        <mxCell id="0" />
        <mxCell id="1" parent="0" />
        <mxCell id="5VCuwM4RlZ9ypfuIw4vm-3" value="" style="edgeStyle=orthogonalEdgeStyle;rounded=0;orthogonalLoop=1;jettySize=auto;html=1;" parent="1" source="5VCuwM4RlZ9ypfuIw4vm-1" edge="1">
          <mxGeometry relative="1" as="geometry">
            <mxPoint x="420" y="130" as="targetPoint" />
          </mxGeometry>
        </mxCell>
        <mxCell id="5VCuwM4RlZ9ypfuIw4vm-1" value="Start" style="ellipse;whiteSpace=wrap;html=1;fillColor=#dae8fc;strokeColor=#6c8ebf;" parent="1" vertex="1">
          <mxGeometry x="357.5" y="30" width="125" height="60" as="geometry" />
        </mxCell>
        <mxCell id="5VCuwM4RlZ9ypfuIw4vm-8" value="register" style="rounded=0;whiteSpace=wrap;html=1;" parent="1" vertex="1">
          <mxGeometry x="140" y="190" width="120" height="60" as="geometry" />
        </mxCell>
        <mxCell id="jN0RjhoUUi78nciPhndG-1" style="edgeStyle=orthogonalEdgeStyle;rounded=0;orthogonalLoop=1;jettySize=auto;html=1;exitX=0.5;exitY=1;exitDx=0;exitDy=0;" parent="1" source="5VCuwM4RlZ9ypfuIw4vm-1" target="5VCuwM4RlZ9ypfuIw4vm-1" edge="1">
          <mxGeometry relative="1" as="geometry" />
        </mxCell>
        <mxCell id="jN0RjhoUUi78nciPhndG-2" value="login" style="rounded=0;whiteSpace=wrap;html=1;" parent="1" vertex="1">
          <mxGeometry x="360" y="190" width="120" height="60" as="geometry" />
        </mxCell>
        <mxCell id="jN0RjhoUUi78nciPhndG-3" value="guest" style="rounded=0;whiteSpace=wrap;html=1;" parent="1" vertex="1">
          <mxGeometry x="560" y="190" width="120" height="60" as="geometry" />
        </mxCell>
        <mxCell id="jN0RjhoUUi78nciPhndG-4" value="" style="endArrow=classic;html=1;rounded=0;entryX=1;entryY=0;entryDx=0;entryDy=0;" parent="1" target="5VCuwM4RlZ9ypfuIw4vm-8" edge="1">
          <mxGeometry width="50" height="50" relative="1" as="geometry">
            <mxPoint x="420" y="130" as="sourcePoint" />
            <mxPoint x="450" y="230" as="targetPoint" />
          </mxGeometry>
        </mxCell>
        <mxCell id="jN0RjhoUUi78nciPhndG-5" value="" style="endArrow=classic;html=1;rounded=0;exitX=0.438;exitY=1;exitDx=0;exitDy=0;exitPerimeter=0;entryX=0.5;entryY=0;entryDx=0;entryDy=0;" parent="1" target="jN0RjhoUUi78nciPhndG-2" edge="1">
          <mxGeometry width="50" height="50" relative="1" as="geometry">
            <mxPoint x="420.05999999999995" y="130" as="sourcePoint" />
            <mxPoint x="450" y="230" as="targetPoint" />
          </mxGeometry>
        </mxCell>
        <mxCell id="jN0RjhoUUi78nciPhndG-6" value="" style="endArrow=classic;html=1;rounded=0;" parent="1" target="jN0RjhoUUi78nciPhndG-3" edge="1">
          <mxGeometry width="50" height="50" relative="1" as="geometry">
            <mxPoint x="420" y="130" as="sourcePoint" />
            <mxPoint x="450" y="230" as="targetPoint" />
          </mxGeometry>
        </mxCell>
        <mxCell id="jN0RjhoUUi78nciPhndG-7" value="" style="endArrow=classic;html=1;rounded=0;exitX=0.5;exitY=1;exitDx=0;exitDy=0;" parent="1" source="5VCuwM4RlZ9ypfuIw4vm-8" target="jN0RjhoUUi78nciPhndG-8" edge="1">
          <mxGeometry width="50" height="50" relative="1" as="geometry">
            <mxPoint x="400" y="280" as="sourcePoint" />
            <mxPoint x="200" y="270" as="targetPoint" />
          </mxGeometry>
        </mxCell>
        <mxCell id="jN0RjhoUUi78nciPhndG-8" value="email + password" style="shape=parallelogram;perimeter=parallelogramPerimeter;whiteSpace=wrap;html=1;fixedSize=1;" parent="1" vertex="1">
          <mxGeometry x="130" y="280" width="140" height="60" as="geometry" />
        </mxCell>
        <mxCell id="jN0RjhoUUi78nciPhndG-9" value="" style="endArrow=classic;html=1;rounded=0;exitX=0.5;exitY=1;exitDx=0;exitDy=0;" parent="1" source="jN0RjhoUUi78nciPhndG-8" edge="1">
          <mxGeometry width="50" height="50" relative="1" as="geometry">
            <mxPoint x="400" y="280" as="sourcePoint" />
            <mxPoint x="200" y="360" as="targetPoint" />
          </mxGeometry>
        </mxCell>
        <mxCell id="jN0RjhoUUi78nciPhndG-11" value="add user to DB" style="rhombus;whiteSpace=wrap;html=1;" parent="1" vertex="1">
          <mxGeometry x="130" y="360" width="140" height="80" as="geometry" />
        </mxCell>
        <mxCell id="jN0RjhoUUi78nciPhndG-12" value="" style="endArrow=classic;html=1;rounded=0;exitX=0.5;exitY=1;exitDx=0;exitDy=0;entryX=0;entryY=0.5;entryDx=0;entryDy=0;" parent="1" source="jN0RjhoUUi78nciPhndG-11" target="jN0RjhoUUi78nciPhndG-19" edge="1">
          <mxGeometry width="50" height="50" relative="1" as="geometry">
            <mxPoint x="400" y="280" as="sourcePoint" />
            <mxPoint x="320" y="460" as="targetPoint" />
          </mxGeometry>
        </mxCell>
        <mxCell id="jN0RjhoUUi78nciPhndG-13" value="email + password" style="shape=parallelogram;perimeter=parallelogramPerimeter;whiteSpace=wrap;html=1;fixedSize=1;" parent="1" vertex="1">
          <mxGeometry x="350" y="280" width="140" height="60" as="geometry" />
        </mxCell>
        <mxCell id="jN0RjhoUUi78nciPhndG-14" value="" style="endArrow=classic;html=1;rounded=0;entryX=0.5;entryY=0;entryDx=0;entryDy=0;exitX=0.5;exitY=1;exitDx=0;exitDy=0;" parent="1" source="jN0RjhoUUi78nciPhndG-2" target="jN0RjhoUUi78nciPhndG-13" edge="1">
          <mxGeometry width="50" height="50" relative="1" as="geometry">
            <mxPoint x="390" y="300" as="sourcePoint" />
            <mxPoint x="440" y="250" as="targetPoint" />
          </mxGeometry>
        </mxCell>
        <mxCell id="jN0RjhoUUi78nciPhndG-15" value="authentication" style="rhombus;whiteSpace=wrap;html=1;" parent="1" vertex="1">
          <mxGeometry x="340" y="360" width="160" height="60" as="geometry" />
        </mxCell>
        <mxCell id="jN0RjhoUUi78nciPhndG-16" value="" style="endArrow=classic;html=1;rounded=0;exitX=0.5;exitY=1;exitDx=0;exitDy=0;entryX=0.5;entryY=0;entryDx=0;entryDy=0;" parent="1" source="jN0RjhoUUi78nciPhndG-13" target="jN0RjhoUUi78nciPhndG-15" edge="1">
          <mxGeometry width="50" height="50" relative="1" as="geometry">
            <mxPoint x="390" y="390" as="sourcePoint" />
            <mxPoint x="440" y="340" as="targetPoint" />
          </mxGeometry>
        </mxCell>
        <mxCell id="jN0RjhoUUi78nciPhndG-17" value="" style="endArrow=classic;html=1;rounded=0;exitX=0.5;exitY=1;exitDx=0;exitDy=0;" parent="1" source="jN0RjhoUUi78nciPhndG-15" edge="1">
          <mxGeometry width="50" height="50" relative="1" as="geometry">
            <mxPoint x="390" y="470" as="sourcePoint" />
            <mxPoint x="410" y="460" as="targetPoint" />
          </mxGeometry>
        </mxCell>
        <mxCell id="jN0RjhoUUi78nciPhndG-19" value="main page with full functionality" style="rounded=1;whiteSpace=wrap;html=1;fillColor=#d5e8d4;strokeColor=#82b366;" parent="1" vertex="1">
          <mxGeometry x="350" y="460" width="130" height="60" as="geometry" />
        </mxCell>
        <mxCell id="jN0RjhoUUi78nciPhndG-20" value="main page with basic functionality" style="rounded=1;whiteSpace=wrap;html=1;fillColor=#f8cecc;strokeColor=#b85450;" parent="1" vertex="1">
          <mxGeometry x="550" y="460" width="130" height="60" as="geometry" />
        </mxCell>
        <mxCell id="jN0RjhoUUi78nciPhndG-21" value="" style="endArrow=classic;html=1;rounded=0;exitX=0.5;exitY=1;exitDx=0;exitDy=0;entryX=0.5;entryY=0;entryDx=0;entryDy=0;" parent="1" source="jN0RjhoUUi78nciPhndG-3" target="jN0RjhoUUi78nciPhndG-20" edge="1">
          <mxGeometry width="50" height="50" relative="1" as="geometry">
            <mxPoint x="400" y="370" as="sourcePoint" />
            <mxPoint x="450" y="320" as="targetPoint" />
          </mxGeometry>
        </mxCell>
        <mxCell id="jN0RjhoUUi78nciPhndG-22" value="" style="endArrow=none;html=1;rounded=0;" parent="1" edge="1">
          <mxGeometry width="50" height="50" relative="1" as="geometry">
            <mxPoint x="410" y="560" as="sourcePoint" />
            <mxPoint x="410" y="520" as="targetPoint" />
          </mxGeometry>
        </mxCell>
        <mxCell id="jN0RjhoUUi78nciPhndG-23" value="" style="endArrow=none;html=1;rounded=0;entryX=0.554;entryY=1.05;entryDx=0;entryDy=0;entryPerimeter=0;" parent="1" target="jN0RjhoUUi78nciPhndG-20" edge="1">
          <mxGeometry width="50" height="50" relative="1" as="geometry">
            <mxPoint x="622" y="560" as="sourcePoint" />
            <mxPoint x="640" y="520" as="targetPoint" />
          </mxGeometry>
        </mxCell>
        <mxCell id="jN0RjhoUUi78nciPhndG-24" value="" style="endArrow=none;html=1;rounded=0;" parent="1" edge="1">
          <mxGeometry width="50" height="50" relative="1" as="geometry">
            <mxPoint x="410" y="560" as="sourcePoint" />
            <mxPoint x="620" y="560" as="targetPoint" />
            <Array as="points">
              <mxPoint x="510" y="560" />
            </Array>
          </mxGeometry>
        </mxCell>
        <mxCell id="jN0RjhoUUi78nciPhndG-25" value="&lt;font style=&quot;font-size: 16px;&quot;&gt;FitUbi diagram&lt;/font&gt;" style="text;html=1;align=center;verticalAlign=middle;resizable=0;points=[];autosize=1;strokeColor=none;fillColor=none;" parent="1" vertex="1">
          <mxGeometry x="25" y="30" width="130" height="30" as="geometry" />
        </mxCell>
        <mxCell id="jN0RjhoUUi78nciPhndG-27" value="&lt;font style=&quot;font-size: 12px;&quot;&gt;recipes list&lt;br&gt;&lt;/font&gt;" style="rounded=0;whiteSpace=wrap;html=1;fontSize=16;" parent="1" vertex="1">
          <mxGeometry x="310" y="630" width="80" height="60" as="geometry" />
        </mxCell>
        <mxCell id="jN0RjhoUUi78nciPhndG-28" value="contact" style="rounded=0;whiteSpace=wrap;html=1;fontSize=12;" parent="1" vertex="1">
          <mxGeometry x="755" y="640" width="70" height="60" as="geometry" />
        </mxCell>
        <mxCell id="jN0RjhoUUi78nciPhndG-29" value="utilities" style="rounded=0;whiteSpace=wrap;html=1;fontSize=12;" parent="1" vertex="1">
          <mxGeometry x="555" y="640" width="70" height="60" as="geometry" />
        </mxCell>
        <mxCell id="jN0RjhoUUi78nciPhndG-32" value="" style="edgeStyle=orthogonalEdgeStyle;rounded=0;orthogonalLoop=1;jettySize=auto;html=1;fontSize=12;entryX=0.5;entryY=1;entryDx=0;entryDy=0;" parent="1" source="jN0RjhoUUi78nciPhndG-30" target="jN0RjhoUUi78nciPhndG-43" edge="1">
          <mxGeometry relative="1" as="geometry">
            <mxPoint x="350" y="790" as="targetPoint" />
          </mxGeometry>
        </mxCell>
        <mxCell id="jN0RjhoUUi78nciPhndG-30" value="search" style="rounded=0;whiteSpace=wrap;html=1;fontSize=12;" parent="1" vertex="1">
          <mxGeometry x="310" y="830" width="80" height="60" as="geometry" />
        </mxCell>
        <mxCell id="jN0RjhoUUi78nciPhndG-33" value="" style="endArrow=classic;html=1;rounded=0;fontSize=12;entryX=0.5;entryY=0;entryDx=0;entryDy=0;" parent="1" target="jN0RjhoUUi78nciPhndG-27" edge="1">
          <mxGeometry width="50" height="50" relative="1" as="geometry">
            <mxPoint x="490" y="560" as="sourcePoint" />
            <mxPoint x="540" y="560" as="targetPoint" />
          </mxGeometry>
        </mxCell>
        <mxCell id="jN0RjhoUUi78nciPhndG-34" value="" style="endArrow=classic;html=1;rounded=0;fontSize=12;entryX=0.386;entryY=-0.033;entryDx=0;entryDy=0;entryPerimeter=0;" parent="1" target="jN0RjhoUUi78nciPhndG-28" edge="1">
          <mxGeometry width="50" height="50" relative="1" as="geometry">
            <mxPoint x="550" y="560" as="sourcePoint" />
            <mxPoint x="550" y="560" as="targetPoint" />
          </mxGeometry>
        </mxCell>
        <mxCell id="jN0RjhoUUi78nciPhndG-35" value="" style="endArrow=classic;html=1;rounded=0;fontSize=12;entryX=0.5;entryY=0;entryDx=0;entryDy=0;" parent="1" target="jN0RjhoUUi78nciPhndG-29" edge="1">
          <mxGeometry width="50" height="50" relative="1" as="geometry">
            <mxPoint x="510" y="560" as="sourcePoint" />
            <mxPoint x="510" y="590" as="targetPoint" />
          </mxGeometry>
        </mxCell>
        <mxCell id="jN0RjhoUUi78nciPhndG-37" value="articles" style="rounded=0;whiteSpace=wrap;html=1;fontSize=12;" parent="1" vertex="1">
          <mxGeometry x="652.5" y="640" width="70" height="60" as="geometry" />
        </mxCell>
        <mxCell id="jN0RjhoUUi78nciPhndG-38" value="" style="endArrow=classic;html=1;rounded=0;fontSize=12;entryX=0.5;entryY=0;entryDx=0;entryDy=0;" parent="1" target="jN0RjhoUUi78nciPhndG-37" edge="1">
          <mxGeometry width="50" height="50" relative="1" as="geometry">
            <mxPoint x="530" y="560" as="sourcePoint" />
            <mxPoint x="420" y="580" as="targetPoint" />
          </mxGeometry>
        </mxCell>
        <mxCell id="jN0RjhoUUi78nciPhndG-39" value="message" style="shape=parallelogram;perimeter=parallelogramPerimeter;whiteSpace=wrap;html=1;fixedSize=1;fontSize=12;" parent="1" vertex="1">
          <mxGeometry x="745" y="740" width="90" height="60" as="geometry" />
        </mxCell>
        <mxCell id="jN0RjhoUUi78nciPhndG-40" value="" style="endArrow=classic;html=1;rounded=0;fontSize=12;entryX=0.5;entryY=0;entryDx=0;entryDy=0;exitX=0.5;exitY=1;exitDx=0;exitDy=0;" parent="1" source="jN0RjhoUUi78nciPhndG-28" target="jN0RjhoUUi78nciPhndG-39" edge="1">
          <mxGeometry width="50" height="50" relative="1" as="geometry">
            <mxPoint x="705" y="760" as="sourcePoint" />
            <mxPoint x="755" y="710" as="targetPoint" />
          </mxGeometry>
        </mxCell>
        <mxCell id="jN0RjhoUUi78nciPhndG-41" value="" style="endArrow=classic;html=1;rounded=0;fontSize=12;exitX=0.5;exitY=1;exitDx=0;exitDy=0;" parent="1" source="jN0RjhoUUi78nciPhndG-39" edge="1">
          <mxGeometry width="50" height="50" relative="1" as="geometry">
            <mxPoint x="755" y="850" as="sourcePoint" />
            <mxPoint x="790" y="840" as="targetPoint" />
          </mxGeometry>
        </mxCell>
        <mxCell id="jN0RjhoUUi78nciPhndG-42" value="send" style="rhombus;whiteSpace=wrap;html=1;fontSize=12;" parent="1" vertex="1">
          <mxGeometry x="750" y="840" width="80" height="60" as="geometry" />
        </mxCell>
        <mxCell id="jN0RjhoUUi78nciPhndG-43" value="recipes from DB" style="rhombus;whiteSpace=wrap;html=1;fontSize=12;" parent="1" vertex="1">
          <mxGeometry x="300" y="720" width="100" height="80" as="geometry" />
        </mxCell>
        <mxCell id="jN0RjhoUUi78nciPhndG-44" value="" style="endArrow=classic;html=1;rounded=0;fontSize=12;exitX=0.5;exitY=1;exitDx=0;exitDy=0;entryX=0.5;entryY=0;entryDx=0;entryDy=0;" parent="1" source="jN0RjhoUUi78nciPhndG-27" target="jN0RjhoUUi78nciPhndG-43" edge="1">
          <mxGeometry width="50" height="50" relative="1" as="geometry">
            <mxPoint x="330" y="740" as="sourcePoint" />
            <mxPoint x="380" y="690" as="targetPoint" />
            <Array as="points" />
          </mxGeometry>
        </mxCell>
        <mxCell id="jN0RjhoUUi78nciPhndG-48" value="" style="edgeStyle=orthogonalEdgeStyle;rounded=0;orthogonalLoop=1;jettySize=auto;html=1;fontSize=12;entryX=0.5;entryY=1;entryDx=0;entryDy=0;" parent="1" source="jN0RjhoUUi78nciPhndG-49" target="jN0RjhoUUi78nciPhndG-50" edge="1">
          <mxGeometry relative="1" as="geometry">
            <mxPoint x="687.5" y="800" as="targetPoint" />
          </mxGeometry>
        </mxCell>
        <mxCell id="jN0RjhoUUi78nciPhndG-49" value="search" style="rounded=0;whiteSpace=wrap;html=1;fontSize=12;" parent="1" vertex="1">
          <mxGeometry x="647.5" y="840" width="80" height="60" as="geometry" />
        </mxCell>
        <mxCell id="jN0RjhoUUi78nciPhndG-50" value="articles from DB" style="rhombus;whiteSpace=wrap;html=1;fontSize=12;" parent="1" vertex="1">
          <mxGeometry x="637.5" y="730" width="100" height="80" as="geometry" />
        </mxCell>
        <mxCell id="jN0RjhoUUi78nciPhndG-51" value="" style="endArrow=classic;html=1;rounded=0;fontSize=12;exitX=0.5;exitY=1;exitDx=0;exitDy=0;entryX=0.5;entryY=0;entryDx=0;entryDy=0;" parent="1" source="jN0RjhoUUi78nciPhndG-37" target="jN0RjhoUUi78nciPhndG-50" edge="1">
          <mxGeometry width="50" height="50" relative="1" as="geometry">
            <mxPoint x="692.5" y="710" as="sourcePoint" />
            <mxPoint x="692.5" y="740" as="targetPoint" />
          </mxGeometry>
        </mxCell>
        <mxCell id="jN0RjhoUUi78nciPhndG-52" value="" style="endArrow=none;html=1;rounded=0;fontSize=12;entryX=0.5;entryY=1;entryDx=0;entryDy=0;" parent="1" target="jN0RjhoUUi78nciPhndG-29" edge="1">
          <mxGeometry width="50" height="50" relative="1" as="geometry">
            <mxPoint x="590" y="720" as="sourcePoint" />
            <mxPoint x="555" y="720" as="targetPoint" />
          </mxGeometry>
        </mxCell>
        <mxCell id="jN0RjhoUUi78nciPhndG-53" value="" style="endArrow=none;html=1;rounded=0;fontSize=12;" parent="1" edge="1">
          <mxGeometry width="50" height="50" relative="1" as="geometry">
            <mxPoint x="435" y="720" as="sourcePoint" />
            <mxPoint x="595" y="720" as="targetPoint" />
          </mxGeometry>
        </mxCell>
        <mxCell id="jN0RjhoUUi78nciPhndG-54" value="" style="endArrow=classic;html=1;rounded=0;fontSize=12;" parent="1" edge="1">
          <mxGeometry width="50" height="50" relative="1" as="geometry">
            <mxPoint x="515" y="720" as="sourcePoint" />
            <mxPoint x="515" y="760" as="targetPoint" />
          </mxGeometry>
        </mxCell>
        <mxCell id="jN0RjhoUUi78nciPhndG-55" value="" style="endArrow=classic;html=1;rounded=0;fontSize=12;" parent="1" edge="1">
          <mxGeometry width="50" height="50" relative="1" as="geometry">
            <mxPoint x="595" y="720" as="sourcePoint" />
            <mxPoint x="595" y="760" as="targetPoint" />
          </mxGeometry>
        </mxCell>
        <mxCell id="jN0RjhoUUi78nciPhndG-56" value="macros calculator" style="rounded=0;whiteSpace=wrap;html=1;fontSize=12;" parent="1" vertex="1">
          <mxGeometry x="565" y="760" width="60" height="60" as="geometry" />
        </mxCell>
        <mxCell id="jN0RjhoUUi78nciPhndG-57" value="unit convertion" style="rounded=0;whiteSpace=wrap;html=1;fontSize=12;" parent="1" vertex="1">
          <mxGeometry x="485" y="760" width="60" height="60" as="geometry" />
        </mxCell>
        <mxCell id="jN0RjhoUUi78nciPhndG-58" value="calories calculator" style="rounded=0;whiteSpace=wrap;html=1;fontSize=12;" parent="1" vertex="1">
          <mxGeometry x="410" y="760" width="55" height="60" as="geometry" />
        </mxCell>
        <mxCell id="jN0RjhoUUi78nciPhndG-59" value="" style="endArrow=classic;html=1;rounded=0;fontSize=12;" parent="1" edge="1">
          <mxGeometry width="50" height="50" relative="1" as="geometry">
            <mxPoint x="435" y="720" as="sourcePoint" />
            <mxPoint x="435" y="760" as="targetPoint" />
          </mxGeometry>
        </mxCell>
        <mxCell id="jN0RjhoUUi78nciPhndG-60" value="" style="endArrow=none;html=1;rounded=0;fontSize=12;" parent="1" edge="1">
          <mxGeometry width="50" height="50" relative="1" as="geometry">
            <mxPoint x="370" y="560" as="sourcePoint" />
            <mxPoint x="370" y="522" as="targetPoint" />
          </mxGeometry>
        </mxCell>
        <mxCell id="jN0RjhoUUi78nciPhndG-61" value="" style="endArrow=none;html=1;rounded=0;fontSize=12;" parent="1" edge="1">
          <mxGeometry width="50" height="50" relative="1" as="geometry">
            <mxPoint x="80" y="560" as="sourcePoint" />
            <mxPoint x="370" y="560" as="targetPoint" />
          </mxGeometry>
        </mxCell>
        <mxCell id="jN0RjhoUUi78nciPhndG-62" value="" style="endArrow=classic;html=1;rounded=0;fontSize=12;entryX=0.5;entryY=0;entryDx=0;entryDy=0;" parent="1" target="jN0RjhoUUi78nciPhndG-63" edge="1">
          <mxGeometry width="50" height="50" relative="1" as="geometry">
            <mxPoint x="240" y="560" as="sourcePoint" />
            <mxPoint x="80" y="630" as="targetPoint" />
          </mxGeometry>
        </mxCell>
        <mxCell id="jN0RjhoUUi78nciPhndG-63" value="your fridge" style="rounded=0;whiteSpace=wrap;html=1;fontSize=12;" parent="1" vertex="1">
          <mxGeometry x="210" y="630" width="60" height="60" as="geometry" />
        </mxCell>
        <mxCell id="jN0RjhoUUi78nciPhndG-64" value="" style="endArrow=classic;html=1;rounded=0;fontSize=12;exitX=0.5;exitY=1;exitDx=0;exitDy=0;" parent="1" source="jN0RjhoUUi78nciPhndG-63" edge="1">
          <mxGeometry width="50" height="50" relative="1" as="geometry">
            <mxPoint x="220" y="740" as="sourcePoint" />
            <mxPoint x="240" y="720" as="targetPoint" />
          </mxGeometry>
        </mxCell>
        <mxCell id="jN0RjhoUUi78nciPhndG-65" value="ingredients" style="shape=parallelogram;perimeter=parallelogramPerimeter;whiteSpace=wrap;html=1;fixedSize=1;fontSize=12;" parent="1" vertex="1">
          <mxGeometry x="190" y="720" width="90" height="60" as="geometry" />
        </mxCell>
        <mxCell id="jN0RjhoUUi78nciPhndG-66" value="" style="endArrow=none;html=1;rounded=0;fontSize=12;" parent="1" edge="1">
          <mxGeometry width="50" height="50" relative="1" as="geometry">
            <mxPoint x="230" y="860" as="sourcePoint" />
            <mxPoint x="230" y="780" as="targetPoint" />
          </mxGeometry>
        </mxCell>
        <mxCell id="jN0RjhoUUi78nciPhndG-67" value="" style="endArrow=classic;html=1;rounded=0;fontSize=12;entryX=0;entryY=0.5;entryDx=0;entryDy=0;" parent="1" target="jN0RjhoUUi78nciPhndG-30" edge="1">
          <mxGeometry width="50" height="50" relative="1" as="geometry">
            <mxPoint x="230" y="860" as="sourcePoint" />
            <mxPoint x="300" y="850" as="targetPoint" />
          </mxGeometry>
        </mxCell>
        <mxCell id="jN0RjhoUUi78nciPhndG-68" value="plans" style="rounded=0;whiteSpace=wrap;html=1;fontSize=12;" parent="1" vertex="1">
          <mxGeometry x="130" y="630" width="70" height="60" as="geometry" />
        </mxCell>
        <mxCell id="jN0RjhoUUi78nciPhndG-70" value="user profile" style="rounded=0;whiteSpace=wrap;html=1;fontSize=12;" parent="1" vertex="1">
          <mxGeometry x="40" y="630" width="70" height="60" as="geometry" />
        </mxCell>
        <mxCell id="jN0RjhoUUi78nciPhndG-71" value="" style="endArrow=classic;html=1;rounded=0;fontSize=12;" parent="1" edge="1">
          <mxGeometry width="50" height="50" relative="1" as="geometry">
            <mxPoint x="80" y="560" as="sourcePoint" />
            <mxPoint x="80" y="630" as="targetPoint" />
          </mxGeometry>
        </mxCell>
        <mxCell id="jN0RjhoUUi78nciPhndG-72" value="" style="endArrow=classic;html=1;rounded=0;fontSize=12;entryX=0.5;entryY=0;entryDx=0;entryDy=0;" parent="1" target="jN0RjhoUUi78nciPhndG-68" edge="1">
          <mxGeometry width="50" height="50" relative="1" as="geometry">
            <mxPoint x="165" y="560" as="sourcePoint" />
            <mxPoint x="180" y="570" as="targetPoint" />
          </mxGeometry>
        </mxCell>
        <mxCell id="jN0RjhoUUi78nciPhndG-73" value="" style="endArrow=classic;html=1;rounded=0;fontSize=12;exitX=0.5;exitY=1;exitDx=0;exitDy=0;" parent="1" source="jN0RjhoUUi78nciPhndG-68" edge="1">
          <mxGeometry width="50" height="50" relative="1" as="geometry">
            <mxPoint x="110" y="710" as="sourcePoint" />
            <mxPoint x="165" y="840" as="targetPoint" />
          </mxGeometry>
        </mxCell>
        <mxCell id="jN0RjhoUUi78nciPhndG-79" value="" style="edgeStyle=orthogonalEdgeStyle;rounded=0;orthogonalLoop=1;jettySize=auto;html=1;fontSize=12;" parent="1" target="jN0RjhoUUi78nciPhndG-78" edge="1">
          <mxGeometry relative="1" as="geometry">
            <mxPoint x="70" y="770" as="sourcePoint" />
          </mxGeometry>
        </mxCell>
        <mxCell id="jN0RjhoUUi78nciPhndG-84" style="edgeStyle=orthogonalEdgeStyle;rounded=0;orthogonalLoop=1;jettySize=auto;html=1;entryX=0.607;entryY=0.02;entryDx=0;entryDy=0;entryPerimeter=0;fontSize=12;" parent="1" source="jN0RjhoUUi78nciPhndG-70" target="jN0RjhoUUi78nciPhndG-75" edge="1">
          <mxGeometry relative="1" as="geometry" />
        </mxCell>
        <mxCell id="jN0RjhoUUi78nciPhndG-75" value="&amp;nbsp;&amp;nbsp;&amp;nbsp;&amp;nbsp; user data: weight, preferences etc." style="shape=parallelogram;perimeter=parallelogramPerimeter;whiteSpace=wrap;html=1;fixedSize=1;fontSize=12;" parent="1" vertex="1">
          <mxGeometry x="20" y="720" width="135" height="50" as="geometry" />
        </mxCell>
        <mxCell id="jN0RjhoUUi78nciPhndG-78" value="update user" style="rhombus;whiteSpace=wrap;html=1;fontSize=12;" parent="1" vertex="1">
          <mxGeometry x="20" y="800" width="100" height="50" as="geometry" />
        </mxCell>
        <mxCell id="jN0RjhoUUi78nciPhndG-90" value="" style="edgeStyle=orthogonalEdgeStyle;rounded=0;orthogonalLoop=1;jettySize=auto;html=1;fontSize=12;" parent="1" source="jN0RjhoUUi78nciPhndG-80" target="jN0RjhoUUi78nciPhndG-86" edge="1">
          <mxGeometry relative="1" as="geometry" />
        </mxCell>
        <mxCell id="jN0RjhoUUi78nciPhndG-80" value="save plan" style="rhombus;whiteSpace=wrap;html=1;fontSize=12;" parent="1" vertex="1">
          <mxGeometry x="180" y="910" width="80" height="70" as="geometry" />
        </mxCell>
        <mxCell id="jN0RjhoUUi78nciPhndG-81" value="create plan" style="shape=parallelogram;perimeter=parallelogramPerimeter;whiteSpace=wrap;html=1;fixedSize=1;fontSize=12;" parent="1" vertex="1">
          <mxGeometry x="120" y="840" width="90" height="60" as="geometry" />
        </mxCell>
        <mxCell id="jN0RjhoUUi78nciPhndG-82" value="" style="endArrow=classic;html=1;rounded=0;fontSize=12;exitX=0.433;exitY=1.05;exitDx=0;exitDy=0;exitPerimeter=0;" parent="1" source="jN0RjhoUUi78nciPhndG-81" target="jN0RjhoUUi78nciPhndG-80" edge="1">
          <mxGeometry width="50" height="50" relative="1" as="geometry">
            <mxPoint x="130" y="950" as="sourcePoint" />
            <mxPoint x="180" y="900" as="targetPoint" />
          </mxGeometry>
        </mxCell>
        <mxCell id="jN0RjhoUUi78nciPhndG-85" value="" style="endArrow=classic;html=1;rounded=0;fontSize=12;exitX=0.5;exitY=1;exitDx=0;exitDy=0;entryX=0.364;entryY=0.16;entryDx=0;entryDy=0;entryPerimeter=0;" parent="1" source="jN0RjhoUUi78nciPhndG-70" target="jN0RjhoUUi78nciPhndG-92" edge="1">
          <mxGeometry width="50" height="50" relative="1" as="geometry">
            <mxPoint x="60" y="1030" as="sourcePoint" />
            <mxPoint x="60" y="960" as="targetPoint" />
            <Array as="points">
              <mxPoint x="10" y="710" />
              <mxPoint x="10" y="890" />
            </Array>
          </mxGeometry>
        </mxCell>
        <mxCell id="jN0RjhoUUi78nciPhndG-86" value="plan" style="rounded=0;whiteSpace=wrap;html=1;fontSize=12;" parent="1" vertex="1">
          <mxGeometry x="190" y="1000" width="60" height="60" as="geometry" />
        </mxCell>
        <mxCell id="jN0RjhoUUi78nciPhndG-87" style="edgeStyle=orthogonalEdgeStyle;rounded=0;orthogonalLoop=1;jettySize=auto;html=1;exitX=0.5;exitY=1;exitDx=0;exitDy=0;fontSize=12;" parent="1" source="jN0RjhoUUi78nciPhndG-80" target="jN0RjhoUUi78nciPhndG-80" edge="1">
          <mxGeometry relative="1" as="geometry" />
        </mxCell>
        <mxCell id="jN0RjhoUUi78nciPhndG-91" value="" style="endArrow=classic;html=1;rounded=0;fontSize=12;exitX=0.5;exitY=1;exitDx=0;exitDy=0;entryX=0.5;entryY=0;entryDx=0;entryDy=0;" parent="1" source="jN0RjhoUUi78nciPhndG-78" target="jN0RjhoUUi78nciPhndG-92" edge="1">
          <mxGeometry width="50" height="50" relative="1" as="geometry">
            <mxPoint x="40" y="900" as="sourcePoint" />
            <mxPoint x="70" y="960" as="targetPoint" />
          </mxGeometry>
        </mxCell>
        <mxCell id="jN0RjhoUUi78nciPhndG-94" value="" style="edgeStyle=orthogonalEdgeStyle;rounded=0;orthogonalLoop=1;jettySize=auto;html=1;fontSize=12;entryX=0.25;entryY=1;entryDx=0;entryDy=0;" parent="1" source="jN0RjhoUUi78nciPhndG-92" target="jN0RjhoUUi78nciPhndG-81" edge="1">
          <mxGeometry relative="1" as="geometry">
            <mxPoint x="70" y="1010" as="targetPoint" />
            <Array as="points">
              <mxPoint x="143" y="970" />
            </Array>
          </mxGeometry>
        </mxCell>
        <mxCell id="jN0RjhoUUi78nciPhndG-92" value="analyze data" style="rhombus;whiteSpace=wrap;html=1;fontSize=12;" parent="1" vertex="1">
          <mxGeometry x="15" y="940" width="110" height="50" as="geometry" />
        </mxCell>
      </root>
    </mxGraphModel>
  </diagram>
</mxfile>
